<?xml version="1.0" encoding="utf-8"?>
<!-- Generator: Adobe Illustrator 24.0.3, SVG Export Plug-In . SVG Version: 6.00 Build 0)  -->
<svg version="1.1" id="Capa_1" xmlns="http://www.w3.org/2000/svg" xmlns:xlink="http://www.w3.org/1999/xlink" x="0px" y="0px"
	 viewBox="0 0 443.2 134.6" style="enable-background:new 0 0 443.2 134.6;" xml:space="preserve">
<style type="text/css">
	.st0{fill:#B4B4B5;}
	.st1{fill:#0C0D0D;}
	.st2{fill:#FFFFFF;}
</style>
<g id="Layer_1">
</g>
<g id="Layer_2">
	<g>
		<g>
			<g>
				<g>
					<path class="st0" d="M407.9,0H35.3c-1.4,0-2.7,0-4,0c-1.1,0-2.3,0-3.4,0c-2.5,0.1-5,0.2-7.4,0.6c-2.5,0.4-4.8,1.1-7,2.1
						c-2.2,1-4.2,2.4-6,4C5.6,8.3,4.1,10.2,3,12.2c-1.1,2-1.9,4.2-2.3,6.4c-0.5,2.2-0.6,4.5-0.7,6.7c0,1,0,2.1-0.1,3.1
						c0,1.2,0,2.4,0,3.7v70.4c0,1.2,0,2.5,0,3.7c0,1,0,2.1,0.1,3.1c0.1,2.2,0.2,4.5,0.7,6.7c0.4,2.2,1.2,4.4,2.3,6.4
						c1.1,2,2.6,3.9,4.4,5.4c1.8,1.6,3.8,2.9,6,4c2.3,1.1,4.6,1.7,7,2.1c2.5,0.4,5,0.5,7.4,0.6c1.1,0,2.3,0,3.4,0c1.3,0,2.7,0,4,0
						h372.6c1.3,0,2.7,0,4,0c1.1,0,2.3,0,3.4,0c2.5-0.1,5-0.2,7.4-0.6c2.5-0.4,4.8-1.1,7.1-2.1c2.2-1,4.2-2.4,6-4
						c1.8-1.6,3.2-3.4,4.4-5.4c1.1-2,1.9-4.1,2.3-6.4c0.5-2.2,0.6-4.5,0.7-6.7c0-1.1,0-2.1,0-3.1c0-1.2,0-2.4,0-3.7V32.1
						c0-1.2,0-2.4,0-3.7c0-1,0-2.1,0-3.1c-0.1-2.2-0.2-4.5-0.7-6.7c-0.4-2.2-1.2-4.4-2.3-6.4c-1.1-2-2.6-3.9-4.4-5.5
						c-1.8-1.6-3.8-2.9-6-4c-2.3-1-4.6-1.7-7.1-2.1c-2.4-0.4-4.9-0.5-7.4-0.6c-1.1,0-2.3,0-3.4,0C410.6,0,409.2,0,407.9,0L407.9,0z"
						/>
				</g>
			</g>
			<g>
				<g>
					<path class="st1" d="M31.2,131.6c-1.1,0-2.2,0-3.3,0c-2.1-0.1-4.5-0.2-6.9-0.6c-2.3-0.4-4.3-1-6.1-1.8c-1.9-0.9-3.7-2-5.2-3.4
						c-1.5-1.4-2.8-2.9-3.8-4.7c-1-1.7-1.6-3.5-2-5.6c-0.5-2.3-0.6-4.6-0.6-6.3c0-0.7,0-3.1,0-3.1V28.4c0,0,0-2.3,0-3
						c0-1.8,0.2-4.1,0.6-6.3c0.4-2.1,1-3.9,2-5.6c1-1.8,2.2-3.3,3.8-4.7c1.5-1.4,3.3-2.5,5.2-3.4c1.9-0.9,3.9-1.5,6.1-1.8
						c2.5-0.4,5-0.5,7-0.5l3.3,0h380.6l3.4,0c1.9,0,4.4,0.1,6.9,0.5c2.2,0.4,4.2,1,6.2,1.8c1.9,0.9,3.6,2,5.1,3.4
						c1.5,1.4,2.8,2.9,3.8,4.7c1,1.7,1.6,3.5,2,5.5c0.4,2.1,0.6,4.3,0.6,6.3c0,1,0,2,0,3c0,1.3,0,2.5,0,3.7v70.4c0,1.2,0,2.4,0,3.6
						c0,1.1,0,2.1,0,3.1c-0.1,2-0.2,4.2-0.6,6.2c-0.4,2.1-1,3.9-2,5.6c-1,1.8-2.3,3.3-3.8,4.7c-1.5,1.4-3.3,2.6-5.2,3.4
						c-1.9,0.9-3.9,1.5-6.2,1.9c-2.4,0.4-4.8,0.5-6.9,0.6c-1.1,0-2.2,0-3.3,0l-4,0L31.2,131.6z"/>
				</g>
			</g>
		</g>
		<g>
			<g id="XMLID_1_">
				<g id="XMLID_2_">
					<g id="XMLID_4_">
						<g>
							<path class="st2" d="M103.4,68.3c-0.1-9.3,7.5-13.8,7.9-14c-4.3-6.3-11-7.2-13.3-7.3c-5.6-0.6-11,3.4-13.9,3.4
								c-2.9,0-7.3-3.3-12-3.2c-6.1,0.1-11.8,3.7-14.9,9.2c-6.4,11.3-1.6,27.8,4.5,36.9c3.1,4.5,6.7,9.4,11.4,9.3
								c4.6-0.2,6.3-3,11.9-3c5.5,0,7.2,3,12,2.9c5-0.1,8.1-4.5,11.1-9c3.6-5.1,5-10.2,5.1-10.4C113,83.1,103.5,79.4,103.4,68.3z"/>
						</g>
					</g>
					<g id="XMLID_3_">
						<g>
							<path class="st2" d="M94.3,41.1c2.5-3.1,4.2-7.4,3.7-11.7c-3.6,0.2-8.1,2.5-10.7,5.6c-2.3,2.7-4.3,7.1-3.8,11.3
								C87.5,46.5,91.7,44.2,94.3,41.1z"/>
						</g>
					</g>
				</g>
			</g>
			<g>
				<g>
					<g>
						<path class="st2" d="M161.8,91.3H146l-3.8,11.3h-6.7l14.9-41.8h6.9l14.9,41.8h-6.8L161.8,91.3z M147.6,86.1h12.5L154,67.8
							h-0.2L147.6,86.1z"/>
					</g>
				</g>
				<g>
					<g>
						<path class="st2" d="M204.6,87.4c0,9.5-5,15.6-12.6,15.6c-4.3,0-7.7-1.9-9.5-5.3h-0.1v15.1h-6.2V72.2h6v5.1h0.1
							c1.7-3.3,5.4-5.4,9.6-5.4C199.6,71.8,204.6,77.9,204.6,87.4z M198.3,87.4c0-6.2-3.2-10.2-8-10.2c-4.7,0-7.9,4.1-7.9,10.2
							c0,6.1,3.2,10.2,7.9,10.2C195.1,97.6,198.3,93.6,198.3,87.4z"/>
					</g>
				</g>
				<g>
					<g>
						<path class="st2" d="M237.9,87.4c0,9.5-5,15.6-12.6,15.6c-4.3,0-7.7-1.9-9.5-5.3h-0.1v15.1h-6.2V72.2h6v5.1h0.1
							c1.7-3.3,5.4-5.4,9.6-5.4C232.8,71.8,237.9,77.9,237.9,87.4z M231.5,87.4c0-6.2-3.2-10.2-8-10.2c-4.7,0-7.9,4.1-7.9,10.2
							c0,6.1,3.2,10.2,7.9,10.2C228.3,97.6,231.5,93.6,231.5,87.4z"/>
					</g>
				</g>
				<g>
					<g>
						<path class="st2" d="M259.8,91c0.5,4.1,4.5,6.9,9.9,6.9c5.2,0,9-2.7,9-6.5c0-3.2-2.3-5.2-7.6-6.5l-5.4-1.3
							c-7.6-1.8-11.1-5.4-11.1-11.3c0-7.2,6.2-12.2,15.1-12.2c8.8,0,14.7,4.9,14.9,12.2h-6.2c-0.4-4.2-3.8-6.7-8.8-6.7
							s-8.4,2.6-8.4,6.2c0,2.9,2.2,4.7,7.5,6l4.6,1.1c8.5,2,12,5.5,12,11.6c0,7.8-6.2,12.7-16,12.7c-9.2,0-15.4-4.8-15.8-12.3
							L259.8,91L259.8,91z"/>
					</g>
				</g>
				<g>
					<g>
						<path class="st2" d="M298.6,64.9v7.2h5.7v4.9h-5.7v16.8c0,2.6,1.1,3.8,3.7,3.8c0.6,0,1.6-0.1,2-0.1v4.9
							c-0.7,0.2-2.1,0.3-3.4,0.3c-6.1,0-8.5-2.3-8.5-8.2V77.1H288v-4.9h4.4v-7.2C292.4,64.9,298.6,64.9,298.6,64.9z"/>
					</g>
				</g>
				<g>
					<g>
						<path class="st2" d="M307.6,87.4c0-9.6,5.6-15.6,14.3-15.6c8.8,0,14.3,6,14.3,15.6c0,9.6-5.5,15.6-14.3,15.6
							S307.6,97,307.6,87.4z M330,87.4c0-6.6-3-10.5-8-10.5s-8,3.9-8,10.5c0,6.6,3,10.4,8,10.4S330,94,330,87.4z"/>
					</g>
				</g>
				<g>
					<g>
						<path class="st2" d="M341.4,72.2h5.9v5.2h0.1c1-3.4,3.7-5.5,7.3-5.5c0.9,0,1.6,0.1,2.1,0.2v5.8c-0.5-0.2-1.6-0.4-2.8-0.4
							c-4,0-6.5,2.7-6.5,7v18.1h-6.2L341.4,72.2L341.4,72.2z"/>
					</g>
				</g>
				<g>
					<g>
						<path class="st2" d="M385.4,93.7c-0.8,5.5-6.2,9.3-13,9.3c-8.8,0-14.2-5.9-14.2-15.5c0-9.6,5.5-15.8,14-15.8
							c8.4,0,13.6,5.8,13.6,15V89h-21.3v0.4c0,5.2,3.2,8.6,8.1,8.6c3.4,0,6.1-1.7,7-4.3L385.4,93.7L385.4,93.7z M364.4,84.6h15.1
							c-0.1-4.7-3.1-7.7-7.4-7.7C367.8,76.8,364.8,80,364.4,84.6z"/>
					</g>
				</g>
			</g>
			<g>
				<g>
					<path class="st2" d="M138.9,39.4c0-6.5,3.4-10.5,9-10.5c4.4,0,7.8,2.9,8.3,7H153c-0.6-2.5-2.6-4-5.2-4c-3.6,0-5.8,2.9-5.8,7.6
						c0,4.7,2.2,7.6,5.8,7.6c2.6,0,4.6-1.4,5.2-3.7h3.1c-0.5,4-3.8,6.6-8.3,6.6C142.3,49.9,138.9,45.9,138.9,39.4z"/>
				</g>
			</g>
			<g>
				<g>
					<path class="st2" d="M159.5,41.9c0-4.9,2.7-7.9,7.1-7.9c4.4,0,7.1,3,7.1,7.9c0,4.9-2.7,7.9-7.1,7.9
						C162.2,49.8,159.5,46.8,159.5,41.9z M170.6,41.9c0-3.3-1.5-5.2-4-5.2c-2.6,0-4,1.9-4,5.2c0,3.3,1.5,5.2,4,5.2
						S170.6,45.2,170.6,41.9z"/>
				</g>
			</g>
			<g>
				<g>
					<path class="st2" d="M177.6,34.3h2.9v2.4h0.2c0.7-1.7,2.2-2.7,4.5-2.7c3.4,0,5.2,2,5.2,5.6v9.8h-3v-9.1c0-2.4-1-3.7-3.2-3.7
						s-3.6,1.5-3.6,3.8v8.9h-3V34.3L177.6,34.3z"/>
				</g>
			</g>
			<g>
				<g>
					<path class="st2" d="M200.4,34c3.4,0,5.6,1.6,5.9,4.3h-2.8c-0.3-1.1-1.4-1.8-3-1.8c-1.6,0-2.9,0.8-2.9,2c0,0.9,0.8,1.5,2.4,1.8
						l2.5,0.6c2.9,0.7,4.2,1.9,4.2,4.1c0,2.8-2.6,4.8-6.2,4.8c-3.6,0-5.9-1.6-6.2-4.3h3c0.4,1.2,1.5,1.9,3.3,1.9
						c1.9,0,3.2-0.8,3.2-2.1c0-0.9-0.7-1.5-2.2-1.8l-2.6-0.6c-2.9-0.7-4.2-2-4.2-4.2C194.6,35.9,197,34,200.4,34z"/>
				</g>
			</g>
			<g>
				<g>
					<path class="st2" d="M210.3,31.8l3.5-4.8h3.5l-3.9,4.8H210.3z M210.6,34.3h2.9v15.1h-2.9V34.3z"/>
				</g>
			</g>
			<g>
				<g>
					<path class="st2" d="M218.2,51h3c0.2,1.1,1.5,1.8,3.5,1.8c2.5,0,3.9-1.2,3.9-3.2v-2.9h-0.2c-0.9,1.6-2.6,2.6-4.6,2.6
						c-3.8,0-6.2-3-6.2-7.5c0-4.6,2.4-7.7,6.2-7.7c2.1,0,3.9,1,4.7,2.7h0.2v-2.4h2.8v15.3c0,3.5-2.7,5.7-6.9,5.7
						C220.9,55.2,218.5,53.5,218.2,51z M228.7,41.7c0-3-1.6-5-4.1-5c-2.6,0-4,1.9-4,5c0,3,1.4,4.9,4,4.9
						C227.2,46.6,228.7,44.7,228.7,41.7z"/>
				</g>
			</g>
			<g>
				<g>
					<path class="st2" d="M249,49.5h-2.9V47h-0.2c-0.7,1.7-2.3,2.7-4.5,2.7c-3.3,0-5.2-2.1-5.2-5.6v-9.8h3v9.1c0,2.4,1,3.6,3.1,3.6
						c2.4,0,3.7-1.4,3.7-3.8v-8.9h3L249,49.5L249,49.5z"/>
				</g>
			</g>
			<g>
				<g>
					<path class="st2" d="M266.4,45.4c-0.7,2.7-3.1,4.4-6.5,4.4c-4.3,0-6.9-3-6.9-7.8s2.7-7.9,6.9-7.9c4.2,0,6.7,2.9,6.7,7.6v1H256
						v0.2c0.1,2.7,1.6,4.3,4,4.3c1.8,0,3-0.7,3.6-1.8L266.4,45.4L266.4,45.4z M256,40.5h7.6c-0.1-2.4-1.5-3.9-3.7-3.9
						C257.7,36.6,256.1,38.1,256,40.5z"/>
				</g>
			</g>
			<g>
				<g>
					<path class="st2" d="M270.7,28.4h3v21.1h-3V28.4z"/>
				</g>
			</g>
			<g>
				<g>
					<path class="st2" d="M277.8,41.9c0-4.9,2.7-7.9,7.1-7.9c4.4,0,7.1,3,7.1,7.9c0,4.9-2.7,7.9-7.1,7.9
						C280.5,49.8,277.8,46.8,277.8,41.9z M288.9,41.9c0-3.3-1.5-5.2-4-5.2s-4,1.9-4,5.2c0,3.3,1.5,5.2,4,5.2
						C287.4,47.1,288.9,45.2,288.9,41.9z"/>
				</g>
			</g>
			<g>
				<g>
					<path class="st2" d="M316.7,45.4c-0.7,2.7-3.1,4.4-6.5,4.4c-4.3,0-6.9-3-6.9-7.8s2.7-7.9,6.9-7.9c4.2,0,6.7,2.9,6.7,7.6v1
						h-10.6v0.2c0.1,2.7,1.6,4.3,4,4.3c1.8,0,3-0.7,3.6-1.8L316.7,45.4L316.7,45.4z M306.3,40.5h7.6c-0.1-2.4-1.5-3.9-3.7-3.9
						C308,36.6,306.5,38.1,306.3,40.5z"/>
				</g>
			</g>
			<g>
				<g>
					<path class="st2" d="M320.9,34.3h2.9v2.4h0.2c0.7-1.7,2.2-2.7,4.5-2.7c3.4,0,5.2,2,5.2,5.6v9.8h-3v-9.1c0-2.4-1-3.7-3.2-3.7
						s-3.6,1.5-3.6,3.8v8.9h-3L320.9,34.3L320.9,34.3z"/>
				</g>
			</g>
			<g>
				<g>
					<path class="st2" d="M359.1,45.4c-0.7,2.7-3.1,4.4-6.5,4.4c-4.3,0-6.9-3-6.9-7.8s2.7-7.9,6.9-7.9c4.2,0,6.7,2.9,6.7,7.6v1
						h-10.6v0.2c0.1,2.7,1.6,4.3,4,4.3c1.8,0,3-0.7,3.6-1.8L359.1,45.4L359.1,45.4z M348.6,40.5h7.6c-0.1-2.4-1.5-3.9-3.7-3.9
						C350.3,36.6,348.8,38.1,348.6,40.5z"/>
				</g>
			</g>
			<g>
				<g>
					<path class="st2" d="M363.3,28.4h3v21.1h-3V28.4z"/>
				</g>
			</g>
		</g>
	</g>
</g>
</svg>
