<svg id="Capa_1" data-name="Capa 1" xmlns="http://www.w3.org/2000/svg" xmlns:xlink="http://www.w3.org/1999/xlink" viewBox="0 0 445.08 132.95"><defs><style>.cls-1,.cls-16{fill:none;}.cls-2{clip-path:url(#clip-path);}.cls-3{fill:#a6a6a6;}.cls-17,.cls-4{fill:#fff;}.cls-5{fill:url(#Degradado_sin_nombre_5);}.cls-6{fill:url(#Degradado_sin_nombre_2);}.cls-7{fill:url(#Degradado_sin_nombre_3);}.cls-8{fill:url(#Degradado_sin_nombre_4);}.cls-9{clip-path:url(#clip-path-3);}.cls-10{opacity:0.2;}.cls-11{clip-path:url(#clip-path-4);}.cls-12{opacity:0.12;}.cls-13{clip-path:url(#clip-path-5);}.cls-14{clip-path:url(#clip-path-6);}.cls-15{opacity:0.25;}.cls-16,.cls-17{stroke:#fff;stroke-miterlimit:13.33;stroke-width:0.27px;}</style><clipPath id="clip-path" transform="translate(-0.79 -0.06)"><rect class="cls-1" x="-32.18" y="-33.18" width="511.02" height="199.43"/></clipPath><linearGradient id="Degradado_sin_nombre_5" x1="-77.1" y1="454.07" x2="-74.6" y2="454.07" gradientTransform="translate(8508.24 11914.53) rotate(135) scale(31.65)" gradientUnits="userSpaceOnUse"><stop offset="0" stop-color="#00a0ff"/><stop offset="0.01" stop-color="#00a1ff"/><stop offset="0.26" stop-color="#00beff"/><stop offset="0.51" stop-color="#00d2ff"/><stop offset="0.76" stop-color="#00dfff"/><stop offset="1" stop-color="#00e3ff"/></linearGradient><linearGradient id="Degradado_sin_nombre_2" x1="-86.21" y1="453.01" x2="-83.74" y2="453.01" gradientTransform="translate(-2669.08 14681.81) rotate(180) scale(32.26)" gradientUnits="userSpaceOnUse"><stop offset="0" stop-color="#ffe000"/><stop offset="0.41" stop-color="#ffbd00"/><stop offset="0.78" stop-color="orange"/><stop offset="1" stop-color="#ff9c00"/></linearGradient><linearGradient id="Degradado_sin_nombre_3" x1="-78.03" y1="456.14" x2="-75.55" y2="456.14" gradientTransform="translate(11555.98 16283.09) rotate(135) scale(42.91)" gradientUnits="userSpaceOnUse"><stop offset="0" stop-color="#ff3a44"/><stop offset="1" stop-color="#c31162"/></linearGradient><linearGradient id="Degradado_sin_nombre_4" x1="-67.28" y1="472.55" x2="-64.8" y2="472.55" gradientTransform="translate(7339.38 -5490.54) rotate(45) scale(19.16)" gradientUnits="userSpaceOnUse"><stop offset="0" stop-color="#32a071"/><stop offset="0.07" stop-color="#2da771"/><stop offset="0.48" stop-color="#15cf74"/><stop offset="0.8" stop-color="#06e775"/><stop offset="1" stop-color="#00f076"/></linearGradient><clipPath id="clip-path-3" transform="translate(-0.79 -0.06)"><rect class="cls-1" x="35.19" y="80.27" width="55.01" height="29.01"/></clipPath><clipPath id="clip-path-4" transform="translate(-0.79 -0.06)"><rect class="cls-1" x="33.66" y="102.81" width="1.77" height="5.16"/></clipPath><clipPath id="clip-path-5" transform="translate(-0.79 -0.06)"><rect class="cls-1" x="89.9" y="66.54" width="19.89" height="14.04"/></clipPath><clipPath id="clip-path-6" transform="translate(-0.79 -0.06)"><rect class="cls-1" x="33.66" y="23.79" width="76.13" height="42.75"/></clipPath></defs><title>Badges_android</title><g id="g10"><g id="g12"><g class="cls-2"><g id="g14"><g id="g34"><path id="path36" d="M429.38,133H17.27A16.6,16.6,0,0,1,.79,116.39V16.68A16.6,16.6,0,0,1,17.27.06H429.38a16.6,16.6,0,0,1,16.49,16.62v99.71A16.6,16.6,0,0,1,429.38,133" transform="translate(-0.79 -0.06)"/></g><g id="g38"><path id="path40" class="cls-3" d="M429.38.06H17.27A16.6,16.6,0,0,0,.79,16.68v99.71A16.6,16.6,0,0,0,17.27,133H429.38a16.6,16.6,0,0,0,16.49-16.62V16.68A16.6,16.6,0,0,0,429.38.06m0,2.66a13.92,13.92,0,0,1,13.85,14v99.71a13.92,13.92,0,0,1-13.85,14H17.27a13.92,13.92,0,0,1-13.85-14V16.68a13.92,13.92,0,0,1,13.85-14H429.38" transform="translate(-0.79 -0.06)"/></g><path id="path42" class="cls-4" d="M353.34,99.77h6.15V58.22h-6.15Zm55.41-26.58-7.05,18h-.21l-7.32-18h-6.63l11,25.18-6.26,14h6.42l16.91-39.18ZM373.86,95.05c-2,0-4.82-1-4.82-3.53,0-3.2,3.5-4.43,6.52-4.43a10.91,10.91,0,0,1,5.62,1.39,7.47,7.47,0,0,1-7.32,6.57m.75-22.77c-4.46,0-9.07,2-11,6.36l5.46,2.3c1.17-2.3,3.34-3,5.62-3,3.18,0,6.42,1.93,6.47,5.35v.43a13.41,13.41,0,0,0-6.42-1.61c-5.88,0-11.87,3.26-11.87,9.36,0,5.56,4.82,9.14,10.23,9.14A8.66,8.66,0,0,0,381,96.5h.21v3.2h5.94V83.77c0-7.37-5.46-11.49-12.51-11.49m-38,6h-8.75V64h8.75a7.12,7.12,0,1,1,0,14.24m-.16-20H321.69V99.77h6.15V84h8.59c6.82,0,13.52-5,13.52-12.91s-6.7-12.9-13.52-12.9M256.05,95.06c-4.25,0-7.81-3.59-7.81-8.51s3.56-8.62,7.81-8.62,7.48,3.64,7.48,8.62-3.29,8.51-7.48,8.51m7.06-19.54h-.21a9.68,9.68,0,0,0-7.38-3.16c-7,0-13.44,6.21-13.44,14.19s6.42,14.08,13.44,14.08a9.54,9.54,0,0,0,7.38-3.21h.21v2c0,5.41-2.87,8.3-7.49,8.3a7.75,7.75,0,0,1-7.06-5L243.19,105a13.36,13.36,0,0,0,12.43,8.35c7.22,0,13.33-4.28,13.33-14.72V73.21h-5.84ZM273.2,99.77h6.17V58.22H273.2Zm15.25-13.7a7.72,7.72,0,0,1,7.32-8.25,5.42,5.42,0,0,1,5.21,3Zm19.12-4.72c-1.17-3.16-4.73-9-12-9s-13.22,5.72-13.22,14.13a14,14,0,0,0,25.6,7.87l-4.78-3.21a8,8,0,0,1-6.91,3.91,7.15,7.15,0,0,1-6.8-4.28L308.2,83ZM158.19,76.7v6h14.23a12.56,12.56,0,0,1-3.23,7.55,14.54,14.54,0,0,1-11,4.39,16,16,0,0,1,0-31.91A15.1,15.1,0,0,1,168.92,67l4.2-4.23a20.71,20.71,0,0,0-14.93-6.05,22,22,0,1,0,0,43.91c6.48,0,11.37-2.14,15.19-6.16s5.15-9.53,5.15-14a19,19,0,0,0-.32-3.74Zm36.53,18.36c-4.25,0-7.92-3.53-7.92-8.57s3.67-8.56,7.92-8.56,7.91,3.48,7.91,8.56-3.67,8.57-7.91,8.57m0-22.7a14.14,14.14,0,1,0,14.07,14.13,13.87,13.87,0,0,0-14.07-14.13m30.7,22.7c-4.25,0-7.91-3.53-7.91-8.57s3.66-8.56,7.91-8.56,7.91,3.48,7.91,8.56-3.66,8.57-7.91,8.57m0-22.7A14.14,14.14,0,1,0,239.5,86.49a13.87,13.87,0,0,0-14.08-14.13" transform="translate(-0.79 -0.06)"/></g></g></g><g id="g44"><g id="g46"><g id="g52"><g id="g54"><path id="path70" class="cls-5" d="M35.19,25.11a6.71,6.71,0,0,0-1.53,4.67h0v73.51A6.68,6.68,0,0,0,35.19,108h0l.24.24L76.28,67v-1L35.43,24.87Z" transform="translate(-0.79 -0.06)"/></g></g></g></g><g id="g72"><g id="g74"><g id="g80"><g id="g82"><path id="path94" class="cls-6" d="M76.28,66.05v1L89.89,80.76l.31-.18,16.13-9.24c4.61-2.64,4.61-7,0-9.6h0L90.2,52.5l-.3-.18Z" transform="translate(-0.79 -0.06)"/></g></g></g></g><g id="g96"><g id="g98"><g id="g104"><g id="g106"><path id="path114" class="cls-7" d="M35.19,108c1.52,1.62,4,1.82,6.85.21h0L90.2,80.58l-13.92-14Z" transform="translate(-0.79 -0.06)"/></g></g></g></g><g id="g116"><g id="g118"><g id="g124"><g id="g126"><path id="path140" class="cls-8" d="M35.19,25.11,76.28,66.54l13.92-14L42,24.91a7.52,7.52,0,0,0-3.69-1.12h0a4.21,4.21,0,0,0-3.16,1.32" transform="translate(-0.79 -0.06)"/></g></g></g></g><g id="g142"><g class="cls-2"><g id="g144"><g id="g150"><g id="g164"><g class="cls-9"><g id="g162" class="cls-10"><g id="g160"><path id="path158" d="M89.9,80.27,42,107.68c-2.68,1.53-5.07,1.43-6.61,0l-.24.25.24.23h0c1.54,1.4,3.93,1.5,6.61,0L90.2,80.58Z" transform="translate(-0.79 -0.06)"/></g></g></g></g></g><g id="g166"><g id="g180"><g class="cls-11"><g id="g178" class="cls-12"><g id="g176"><path id="path174" d="M35.19,107.48a6.69,6.69,0,0,1-1.53-4.67v.48A6.68,6.68,0,0,0,35.19,108l.25-.24Z" transform="translate(-0.79 -0.06)"/></g></g></g></g></g><g id="g182"><g id="g196"><g class="cls-13"><g id="g194" class="cls-12"><g id="g192"><path id="path190" d="M106.33,70.85,89.9,80.27l.3.31,16.13-9.24c2.31-1.32,3.46-3.06,3.46-4.8-.2,1.57-1.37,3.11-3.46,4.31" transform="translate(-0.79 -0.06)"/></g></g></g></g></g><g id="g198"><g id="g212"><g class="cls-14"><g id="g210" class="cls-15"><g id="g208"><path id="path206" class="cls-4" d="M42,25.4l64.29,36.82c2.09,1.2,3.27,2.74,3.46,4.32,0-1.74-1.15-3.48-3.46-4.8L42,24.91c-4.61-2.64-8.38-.45-8.38,4.87v.49c0-5.32,3.77-7.51,8.38-4.87" transform="translate(-0.79 -0.06)"/></g></g></g></g></g><g id="g214"><path id="path216" class="cls-4" d="M139.42,40.82h3.51a6.89,6.89,0,0,0,7.43-7.52,7.47,7.47,0,0,0-2-5.53,7.37,7.37,0,0,0-5.43-2h-3.51Zm-2.54,2.45v-20h6.05a9.46,9.46,0,0,1,10,10,9.45,9.45,0,0,1-10,10Z" transform="translate(-0.79 -0.06)"/></g><g id="g218"><path id="path220" class="cls-16" d="M139.42,40.82h3.51a6.89,6.89,0,0,0,7.43-7.52,7.47,7.47,0,0,0-2-5.53,7.37,7.37,0,0,0-5.43-2h-3.51Zm-2.54,2.45v-20h6.05a9.46,9.46,0,0,1,10,10,9.45,9.45,0,0,1-10,10Z" transform="translate(-0.79 -0.06)"/></g><path id="path222" class="cls-17" d="M156.53,23.33h2.54V43.27h-2.54Z" transform="translate(-0.79 -0.06)"/><g id="g224"><path id="path226" class="cls-4" d="M169.18,43.71A7.29,7.29,0,0,1,165,42.29a6.51,6.51,0,0,1-2.7-4l2.32-1a5.32,5.32,0,0,0,1.7,2.77,4.29,4.29,0,0,0,2.89,1.13,4.62,4.62,0,0,0,2.83-.87A2.83,2.83,0,0,0,173.18,38,3.05,3.05,0,0,0,172,35.43a12.1,12.1,0,0,0-3.72-1.69,9.82,9.82,0,0,1-4-2.16A4.53,4.53,0,0,1,163,28.2a5,5,0,0,1,1.69-3.73A6.14,6.14,0,0,1,169,22.88a6.29,6.29,0,0,1,4.09,1.27,5.77,5.77,0,0,1,2,2.77l-2.32,1a3.38,3.38,0,0,0-1.23-1.75,3.81,3.81,0,0,0-2.52-.81,3.93,3.93,0,0,0-2.5.82,2.5,2.5,0,0,0-1,2.05,2.34,2.34,0,0,0,.95,1.88,9.16,9.16,0,0,0,2.81,1.38,21.75,21.75,0,0,1,2.44.92,10.71,10.71,0,0,1,2,1.18,4.74,4.74,0,0,1,1.52,1.84,6,6,0,0,1,.51,2.55,5.61,5.61,0,0,1-.59,2.59,5,5,0,0,1-1.58,1.81,7.46,7.46,0,0,1-2.11,1,7.63,7.63,0,0,1-2.32.35" transform="translate(-0.79 -0.06)"/></g><g id="g228"><path id="path230" class="cls-16" d="M169.18,43.71A7.29,7.29,0,0,1,165,42.29a6.51,6.51,0,0,1-2.7-4l2.32-1a5.32,5.32,0,0,0,1.7,2.77,4.29,4.29,0,0,0,2.89,1.13,4.62,4.62,0,0,0,2.83-.87A2.83,2.83,0,0,0,173.18,38,3.05,3.05,0,0,0,172,35.43a12.1,12.1,0,0,0-3.72-1.69,9.82,9.82,0,0,1-4-2.16A4.53,4.53,0,0,1,163,28.2a5,5,0,0,1,1.69-3.73A6.14,6.14,0,0,1,169,22.88a6.29,6.29,0,0,1,4.09,1.27,5.77,5.77,0,0,1,2,2.77l-2.32,1a3.38,3.38,0,0,0-1.23-1.75,3.81,3.81,0,0,0-2.52-.81,3.93,3.93,0,0,0-2.5.82,2.5,2.5,0,0,0-1,2.05,2.34,2.34,0,0,0,.95,1.88,9.16,9.16,0,0,0,2.81,1.38,21.75,21.75,0,0,1,2.44.92,10.71,10.71,0,0,1,2,1.18,4.74,4.74,0,0,1,1.52,1.84,6,6,0,0,1,.51,2.55,5.61,5.61,0,0,1-.59,2.59,5,5,0,0,1-1.58,1.81,7.46,7.46,0,0,1-2.11,1A7.63,7.63,0,0,1,169.18,43.71Z" transform="translate(-0.79 -0.06)"/></g><g id="g232"><path id="path234" class="cls-4" d="M182,32.74h4.26a3.27,3.27,0,0,0,2.56-1.08,3.45,3.45,0,0,0,0-4.8,3.27,3.27,0,0,0-2.56-1.08H182Zm0,10.53h-2.54V23.33h6.74A6.23,6.23,0,0,1,190.52,25a5.82,5.82,0,0,1,0,8.49,6.2,6.2,0,0,1-4.35,1.69H182Z" transform="translate(-0.79 -0.06)"/></g><g id="g236"><path id="path238" class="cls-16" d="M182,32.74h4.26a3.27,3.27,0,0,0,2.56-1.08,3.45,3.45,0,0,0,0-4.8,3.27,3.27,0,0,0-2.56-1.08H182Zm0,10.53h-2.54V23.33h6.74A6.23,6.23,0,0,1,190.52,25a5.82,5.82,0,0,1,0,8.49,6.2,6.2,0,0,1-4.35,1.69H182Z" transform="translate(-0.79 -0.06)"/></g><g id="g240"><path id="path242" class="cls-4" d="M199.11,39a7.57,7.57,0,0,0,10.75,0,7.84,7.84,0,0,0,2.2-5.72,7.88,7.88,0,0,0-2.2-5.73,7.57,7.57,0,0,0-10.75,0,7.88,7.88,0,0,0-2.2,5.73,7.84,7.84,0,0,0,2.2,5.72m12.63,1.67a10.22,10.22,0,0,1-14.51,0,10.25,10.25,0,0,1-2.91-7.39,10.27,10.27,0,0,1,2.91-7.4,10.18,10.18,0,0,1,14.49,0,10.19,10.19,0,0,1,2.93,7.38,10.25,10.25,0,0,1-2.91,7.39" transform="translate(-0.79 -0.06)"/></g><g id="g244"><path id="path246" class="cls-16" d="M199.11,39a7.57,7.57,0,0,0,10.75,0,7.84,7.84,0,0,0,2.2-5.72,7.88,7.88,0,0,0-2.2-5.73,7.57,7.57,0,0,0-10.75,0,7.88,7.88,0,0,0-2.2,5.73A7.84,7.84,0,0,0,199.11,39Zm12.63,1.67a10.22,10.22,0,0,1-14.51,0,10.25,10.25,0,0,1-2.91-7.39,10.27,10.27,0,0,1,2.91-7.4,10.18,10.18,0,0,1,14.49,0,10.19,10.19,0,0,1,2.93,7.38A10.25,10.25,0,0,1,211.74,40.69Z" transform="translate(-0.79 -0.06)"/></g><g id="g248"><path id="path250" class="cls-4" d="M218.22,43.27V23.33h3.09l9.62,15.51H231L230.93,35V23.33h2.54V43.27h-2.65L220.76,27h-.11l.11,3.85V43.27Z" transform="translate(-0.79 -0.06)"/></g><g id="g252"><path id="path254" class="cls-16" d="M218.22,43.27V23.33h3.09l9.62,15.51H231L230.93,35V23.33h2.54V43.27h-2.65L220.76,27h-.11l.11,3.85V43.27Z" transform="translate(-0.79 -0.06)"/></g><path id="path256" class="cls-17" d="M238,23.33h2.54V43.27H238Z" transform="translate(-0.79 -0.06)"/><g id="g258"><path id="path260" class="cls-4" d="M247.61,40.82h5.11a3,3,0,0,0,2.38-1,3.29,3.29,0,0,0,.91-2.25,3.35,3.35,0,0,0-3.4-3.26h-5Zm0-8.94h4.61a3,3,0,0,0,2.31-1,3,3,0,0,0,0-4.2,2.82,2.82,0,0,0-2.22-.94h-4.73Zm-2.54,11.39v-20h7.15a5.81,5.81,0,0,1,4,1.55,5,5,0,0,1,1.7,3.89,4.41,4.41,0,0,1-.74,2.51,4.67,4.67,0,0,1-1.95,1.64V33a5,5,0,0,1,2.41,1.73,4.55,4.55,0,0,1,.94,2.84,5.26,5.26,0,0,1-1.78,4.06,6.08,6.08,0,0,1-4.22,1.62Z" transform="translate(-0.79 -0.06)"/></g><g id="g262"><path id="path264" class="cls-16" d="M247.61,40.82h5.11a3,3,0,0,0,2.38-1,3.29,3.29,0,0,0,.91-2.25,3.35,3.35,0,0,0-3.4-3.26h-5Zm0-8.94h4.61a3,3,0,0,0,2.31-1,3,3,0,0,0,0-4.2,2.82,2.82,0,0,0-2.22-.94h-4.73Zm-2.54,11.39v-20h7.15a5.81,5.81,0,0,1,4,1.55,5,5,0,0,1,1.7,3.89,4.41,4.41,0,0,1-.74,2.51,4.67,4.67,0,0,1-1.95,1.64V33a5,5,0,0,1,2.41,1.73,4.55,4.55,0,0,1,.94,2.84,5.26,5.26,0,0,1-1.78,4.06,6.08,6.08,0,0,1-4.22,1.62Z" transform="translate(-0.79 -0.06)"/></g><g id="g266"><path id="path268" class="cls-4" d="M262,43.27V23.33h2.54V40.82h8.57v2.45Z" transform="translate(-0.79 -0.06)"/></g><g id="g270"><path id="path272" class="cls-16" d="M262,43.27V23.33h2.54V40.82h8.57v2.45Z" transform="translate(-0.79 -0.06)"/></g><g id="g274"><path id="path276" class="cls-4" d="M287.89,25.78h-9V32.1H287v2.39h-8.12v6.33h9v2.45H276.35V23.33h11.54Z" transform="translate(-0.79 -0.06)"/></g><g id="g278"><path id="path280" class="cls-16" d="M287.89,25.78h-9V32.1H287v2.39h-8.12v6.33h9v2.45H276.35V23.33h11.54Z" transform="translate(-0.79 -0.06)"/></g><g id="g282"><path id="path284" class="cls-4" d="M310.05,25.78h-9V32.1h8.13v2.39H301v6.33h9v2.45H298.5V23.33h11.55Z" transform="translate(-0.79 -0.06)"/></g><g id="g286"><path id="path288" class="cls-16" d="M310.05,25.78h-9V32.1h8.13v2.39H301v6.33h9v2.45H298.5V23.33h11.55Z" transform="translate(-0.79 -0.06)"/></g><g id="g290"><path id="path292" class="cls-4" d="M314,43.27V23.33h3.09l9.61,15.51h.12L326.73,35V23.33h2.55V43.27h-2.65L316.57,27h-.11l.11,3.85V43.27Z" transform="translate(-0.79 -0.06)"/></g><g id="g294"><path id="path296" class="cls-16" d="M314,43.27V23.33h3.09l9.61,15.51h.12L326.73,35V23.33h2.55V43.27h-2.65L316.57,27h-.11l.11,3.85V43.27Z" transform="translate(-0.79 -0.06)"/></g></g></g></g></g></svg>